<?xml version="1.0" encoding="iso-8859-1"?>
<!-- Uploaded to: SVG Repo, www.svgrepo.com, Generator: SVG Repo Mixer Tools -->
<svg height="800px" width="800px" version="1.1" id="Layer_1" xmlns="http://www.w3.org/2000/svg" xmlns:xlink="http://www.w3.org/1999/xlink" 
	 viewBox="0 0 512 512" xml:space="preserve">
<path style="fill:#36495E;" d="M172.507,309.298l69.667-69.667c19.951-19.951,50.166,10.225,30.195,30.195l-69.667,69.667
	C182.751,359.444,152.535,329.269,172.507,309.298z"/>
<path style="fill:#2C3E50;" d="M272.369,239.631l-99.862,99.862c8.338,8.338,21.857,8.338,30.195,0l69.667-69.667
	C280.708,261.488,280.708,247.969,272.369,239.631z"/>
<path style="fill:#6A82A1;" d="M242.174,269.826c-61.645-61.645-61.645-161.948,0-223.593s161.948-61.645,223.593,0
	s61.645,161.948,0,223.593S303.817,331.471,242.174,269.826z"/>
<path style="fill:#36495E;" d="M465.765,46.233L242.172,269.826c61.645,61.645,161.948,61.645,223.593,0
	S527.41,107.878,465.765,46.233z"/>
<path style="fill:#C7E9F4;" d="M286.912,225.086c-36.977-36.977-36.975-97.139,0-134.114c37.019-37.019,97.094-37.019,134.113,0
	c0.001,0.001,0,0,0.001,0.001c37.021,37.018,37.021,97.094,0.001,134.113C384.052,262.063,323.889,262.063,286.912,225.086z"/>
<path style="fill:#65C6BB;" d="M17.962,494.038c-23.949-23.949-23.949-62.916,0-86.865l126.21-126.21
	c8.338-8.338,21.857-8.338,30.195,0l56.67,56.67c8.338,8.338,8.338,21.857,0,30.195l-126.21,126.21
	C80.878,517.987,41.91,517.987,17.962,494.038z"/>
<g>
	<path style="fill:#20B8AE;" d="M231.037,337.633l-28.335-28.335l-184.74,184.74c23.949,23.949,62.916,23.949,86.865,0
		l126.21-126.21C239.375,359.49,239.375,345.971,231.037,337.633z"/>
	<path style="fill:#20B8AE;" d="M210.907,377.895l-76.803-76.803c-8.338-8.338-8.338-21.857,0-30.195s21.857-8.338,30.195,0
		l76.801,76.801c8.338,8.338,8.338,21.857,0,30.195C232.765,386.233,219.245,386.233,210.907,377.895z"/>
</g>
<path style="fill:#80D0E1;" d="M421.027,90.973L286.912,225.086c36.977,36.976,97.139,36.975,134.114,0
	C458.046,188.067,458.047,127.991,421.027,90.973z"/>
<path style="fill:#1DA49C;" d="M241.103,347.699l-38.401-38.401l-30.195,30.195l38.401,38.401c8.338,8.338,21.857,8.338,30.195,0
	C249.44,369.556,249.44,356.036,241.103,347.699z"/>
</svg>